# xmcd
#
# Track frame offsets: 
#        150
#        11666
#        24089
#        47865
#        64263
#        82359
#        95104
#        109946
#        133125
#        150403
#        163775
#        183931
#
# Disc length: 2650 seconds
#
# Revision: 0
# Processed by: cddbd v1.5.2PL0 Copyright (c) Steve Scherf et al.
# Submitted via: ExactAudioCopy v1.1
#
DISCID=a00a580c
DTITLE=Hurray for the Riff Raff - Small town heroes
DYEAR=2014
DGENRE=Blues
TTITLE0=Blue ridge mountain
TTITLE1=Crash on the highway
TTITLE2=Good time blues
TTITLE3=End of the line
TTITLE4=The new SF Bay blues
TTITLE5=The body electric
TTITLE6=No one else
TTITLE7=St. Roch blues
TTITLE8=Levon's dream
TTITLE9=I know it's wrong
TTITLE10=Small town heroes
TTITLE11=Forever is just a day
EXTD=
EXTT0=
EXTT1=
EXTT2=
EXTT3=
EXTT4=
EXTT5=
EXTT6=
EXTT7=
EXTT8=
EXTT9=
EXTT10=
EXTT11=
PLAYORDER=
